<?xml version="1.0" encoding="UTF-8"?>
<svg version="1.1" xmlns="http://www.w3.org/2000/svg" width="365" height="441">
<path d="M0 0 C7.05171388 5.4891296 13.55330327 11.21756339 19.34375 18.05078125 C21.43632958 20.51351052 23.68023867 22.75273121 26 25 C30.15367111 21.56938109 34.02604919 18.01584962 37.72851562 14.10400391 C62.90627361 -12.33562867 100.13252942 -29.32383188 136.5234375 -31.1796875 C145.48221084 -31.36763379 155.02290988 -31.2963984 162 -25 C164.85153469 -20.63358751 165.26837153 -17.83963443 164.5625 -12.6875 C162.56093544 -3.73571738 157.25350916 3.46224042 151 10 C150.34 10 149.68 10 149 10 C148.74992187 10.55816406 148.49984375 11.11632812 148.2421875 11.69140625 C146.79552582 14.38001334 145.05579053 16.57319235 143.125 18.9375 C142.10792969 20.18853516 142.10792969 20.18853516 141.0703125 21.46484375 C139.67857264 23.1690686 138.2692958 24.85910693 136.84375 26.53515625 C132.71135271 32.0596111 131.95569043 38.92995525 131.0625 45.625 C129.67878667 55.20974598 125.60076049 62.59336391 117.9296875 68.62890625 C108.71288556 75.0357076 99.79481164 77.69601214 88.81640625 79.421875 C81.21354836 80.71692862 73.9380197 82.83650461 68 88 C69.13695312 88.47308594 70.27390625 88.94617188 71.4453125 89.43359375 C89.86652427 97.2576999 106.18733861 106.18288357 115.8125 124.4375 C118.7020163 133.10604889 118.6915374 141.17136663 114.84375 149.50390625 C108.41663117 161.19769191 98.84304809 167.37847009 86.2578125 171.109375 C66.51786908 175.80902949 48.74591965 169.56270513 31.76635742 159.88964844 C30.81865479 159.36145508 29.87095215 158.83326172 28.89453125 158.2890625 C28.04737549 157.80131348 27.20021973 157.31356445 26.32739258 156.81103516 C24.02124127 155.73580029 24.02124127 155.73580029 21.8059082 156.77368164 C19.92600304 158.05024831 18.14403236 159.38598242 16.375 160.8125 C2.71977498 171.16119179 -12.26214063 173.49834466 -29 172 C-41.13133048 169.8288721 -51.28352899 163.61940164 -59 154 C-63.62192147 145.89160019 -65.54845267 137.37962502 -63.31640625 128.18359375 C-59.21592072 115.95019501 -50.39165218 106.93204785 -40.1875 99.3125 C-36.47664852 96.50341138 -34.08915339 94.17830678 -32 90 C-31.58333136 87.50528846 -31.58333136 87.50528846 -32 85 C-36.20668846 80.25750027 -42.5511831 78.36111735 -48.4375 76.5625 C-59.5169843 73.15226202 -68.04302283 66.87833049 -74.24609375 57.01953125 C-76.66899207 52.28911072 -77.35489675 47.82711482 -77.9375 42.5625 C-79.61171703 28.31746694 -88.13817258 16.76536507 -99.08203125 7.765625 C-106.23609329 1.17980821 -110.30372336 -7.13138262 -111.4375 -16.6875 C-110.79926278 -21.51986749 -108.64412612 -24.35587388 -105.25 -27.75 C-75.29646131 -44.39085483 -23.56009265 -17.79167217 0 0 Z " fill="#FBFBFB" transform="translate(159,137)"/>
</svg>
